<svg width="1306" height="502" viewBox="0 0 1306 502" fill="none" xmlns="http://www.w3.org/2000/svg">
<circle cx="451.672" cy="263" r="133.867" stroke="black" stroke-width="33.4666"/>
<path d="M234.936 328.688C234.936 340.736 232.66 351.178 228.109 360.013C223.557 368.848 217.801 376.746 210.84 383.707C200.934 393.346 188.752 400.574 174.294 405.394C160.104 409.945 145.379 412.221 130.118 412.221C95.5808 412.221 68.4058 403.118 48.5936 384.912C39.4906 376.345 32.128 366.305 26.5056 354.792C20.8832 343.012 18.072 330.294 18.072 316.64H55.4208C55.4208 325.208 57.2949 333.507 61.0432 341.539C64.7914 349.303 69.6106 355.997 75.5008 361.619C81.9264 367.777 90.0922 372.329 99.9984 375.274C109.904 377.951 119.944 379.29 130.118 379.29C141.095 379.29 151.002 378.085 159.837 375.675C168.94 373.266 176.704 368.982 183.13 362.824C187.681 358.808 191.162 354.257 193.571 349.17C196.248 343.815 197.587 337.256 197.587 329.491C197.587 318.246 193.839 308.474 186.342 300.174C178.846 291.875 166.664 286.386 149.797 283.709C142.032 282.37 134.536 281.299 127.307 280.496C120.078 279.425 112.582 278.22 104.818 276.882C94.1082 275.275 84.0682 272.598 74.6976 268.85C65.5946 265.101 57.5626 260.148 50.6016 253.99C43.9082 247.565 38.5536 240.068 34.5376 231.501C30.7893 222.666 28.9152 212.626 28.9152 201.381C28.9152 190.672 31.0571 180.498 35.3408 170.859C39.8922 160.953 46.0501 152.386 53.8144 145.157C73.8944 126.416 98.7936 117.045 128.512 117.045C142.434 117.045 155.821 119.321 168.672 123.872C181.791 128.424 193.036 135.251 202.406 144.354C219.809 160.953 228.912 181.301 229.715 205.397H192.366C191.831 198.436 190.358 191.876 187.949 185.719C185.539 179.561 182.326 174.206 178.31 169.655C172.956 163.497 165.995 158.677 157.427 155.197C149.127 151.716 139.355 149.976 128.11 149.976C117.936 149.976 108.432 151.583 99.5968 154.795C91.0293 157.74 83.6666 162.693 77.5088 169.655C73.7605 173.938 70.8154 178.624 68.6736 183.71C66.7994 188.53 65.8624 194.152 65.8624 200.578C65.8624 207.003 67.0672 212.626 69.4768 217.445C71.8864 221.996 75.0992 225.878 79.1152 229.091C83.1312 232.304 87.6826 234.848 92.7696 236.722C97.8565 238.596 103.077 239.934 108.432 240.738C116.464 241.809 124.362 243.013 132.126 244.352C140.158 245.423 148.056 246.628 155.821 247.966C179.649 251.447 198.792 260.148 213.249 274.07C227.707 287.725 234.936 305.931 234.936 328.688ZM924.15 407V166.843L835.798 402.984H807.686L719.334 164.835V407H685.198V122.266H736.603L822.545 353.989L908.086 122.266H958.286V407H924.15ZM1162.25 158.008L1112.05 305.797H1212.85L1162.25 158.008ZM1247.79 407L1224.5 339.531H1100.81L1077.92 407H1041.77L1142.17 122.266H1183.94L1284.74 407H1247.79Z" fill="black"/>
<circle cx="451.572" cy="129.967" r="47" stroke="black" stroke-width="15"/>
<circle cx="452.072" cy="129.467" r="11.5" fill="white" stroke="white"/>
</svg>
